# xmcd CD database file
#
# Track frame offsets:
#	150
#	18245
#	31145
#	49220
#	68405
#	89665
#	108917
#	127465
#	144230
#	167065
#	183052
#	200872
#	218687
#	237892
#	251290
#	268640
#	280452
#	296107
#	310592
#
# Disc length: 4367 seconds
#
# Revision: 58
# Processed by: cddbd v1.5.2PL0 Copyright (c) Steve Scherf et al.
# Submitted via: CDex 1.76
#
DISCID=16110d13
DTITLE=Cher - The Greatest Hits
DYEAR=1999
DGENRE=Pop/Rock
TTITLE0=Believe
TTITLE1=The Shoop Shoop Song (It's In His Kiss)
TTITLE2=If I Could Turn Back Time
TTITLE3=Heart Of Stone
TTITLE4=Love And Understanding
TTITLE5=Love Hurts
TTITLE6=Just Like Jesse James
TTITLE7=I Found Someone
TTITLE8=One By One
TTITLE9=Strong Enough
TTITLE10=All Or Nothing
TTITLE11=Walking In Memphis
TTITLE12=Love Can Build A Bridge
TTITLE13=All I Really Want To Do
TTITLE14=Bang Bang
TTITLE15=Gypsys, Tramps and Thieves
TTITLE16=The Beat Goes On
TTITLE17=I Got You Babe
TTITLE18=Dov'e L'amore (Emilio Estefan Jnr. Mix)
EXTD=YEAR: 1999
EXTT0=
EXTT1=
EXTT2=
EXTT3=
EXTT4=
EXTT5=
EXTT6=
EXTT7=
EXTT8=
EXTT9=
EXTT10=
EXTT11=
EXTT12=
EXTT13=
EXTT14=
EXTT15=
EXTT16=
EXTT17=
EXTT18=
PLAYORDER=
